<svg width="48" height="48" viewBox="0 0 48 48" fill="none" xmlns="http://www.w3.org/2000/svg">
<path d="M15.9774 21.84C16.0176 21.3388 16.2451 20.8711 16.6147 20.5302C16.9842 20.1892 17.4686 19.9999 17.9714 20H30.0294C30.5322 19.9999 31.0166 20.1892 31.3861 20.5302C31.7556 20.8711 31.9832 21.3388 32.0234 21.84L32.8264 31.84C32.8485 32.1152 32.8133 32.392 32.7232 32.6529C32.6331 32.9139 32.4899 33.1533 32.3027 33.3562C32.1155 33.5592 31.8883 33.7211 31.6354 33.8319C31.3825 33.9427 31.1095 33.9999 30.8334 34H17.1674C16.8913 33.9999 16.6182 33.9427 16.3654 33.8319C16.1125 33.7211 15.8853 33.5592 15.6981 33.3562C15.5109 33.1533 15.3677 32.9139 15.2776 32.6529C15.1874 32.392 15.1523 32.1152 15.1744 31.84L15.9774 21.84V21.84Z" stroke="white" stroke-width="2" stroke-linecap="round" stroke-linejoin="round"/>
<path d="M28 23V18C28 16.9391 27.5786 15.9217 26.8284 15.1716C26.0783 14.4214 25.0609 14 24 14C22.9391 14 21.9217 14.4214 21.1716 15.1716C20.4214 15.9217 20 16.9391 20 18V23" stroke="white" stroke-width="2" stroke-linecap="round" stroke-linejoin="round"/>
</svg>
